<?xml version="1.0" encoding="UTF-8"?>
<svg xmlns="http://www.w3.org/2000/svg" viewBox="-28 -85 302 302" fill="#00ff88">
  <rect x="-28" y="-85" width="302" height="302" fill="#0a0a0f"/>
  <rect x="6" y="0" width="38" height="7"/>
  <rect x="6" y="9" width="38" height="2"/>
  <rect x="6" y="13" width="38" height="8"/>
  <rect x="93" y="0" width="26" height="7"/>
  <rect x="93" y="9" width="26" height="2"/>
  <rect x="93" y="13" width="26" height="7"/>
  <rect x="156" y="0" width="76" height="7"/>
  <rect x="156" y="9" width="76" height="2"/>
  <rect x="156" y="13" width="76" height="8"/>
  <rect x="6" y="7" width="46" height="2"/>
  <rect x="93" y="7" width="34" height="2"/>
  <rect x="156" y="7" width="84" height="2"/>
  <rect x="50" y="9" width="2" height="13"/>
  <rect x="125" y="9" width="2" height="13"/>
  <rect x="125" y="116" width="2" height="15"/>
  <rect x="238" y="9" width="2" height="13"/>
  <rect x="238" y="116" width="2" height="15"/>
  <rect x="6" y="11" width="43" height="2"/>
  <rect x="93" y="11" width="31" height="2"/>
  <rect x="156" y="11" width="81" height="2"/>
  <rect x="47" y="13" width="2" height="9"/>
  <rect x="122" y="13" width="2" height="9"/>
  <rect x="122" y="116" width="2" height="11"/>
  <rect x="235" y="13" width="2" height="9"/>
  <rect x="235" y="116" width="2" height="11"/>
  <rect x="93" y="20" width="28" height="1"/>
  <rect x="116" y="21" width="2" height="97"/>
  <rect x="119" y="21" width="2" height="97"/>
  <rect x="0" y="24" width="50" height="7"/>
  <rect x="0" y="34" width="50" height="1"/>
  <rect x="0" y="37" width="50" height="8"/>
  <rect x="87" y="24" width="26" height="21"/>
  <rect x="87" y="48" width="26" height="21"/>
  <rect x="87" y="72" width="26" height="21"/>
  <rect x="137" y="24" width="26" height="21"/>
  <rect x="137" y="48" width="26" height="21"/>
  <rect x="137" y="72" width="26" height="21"/>
  <rect x="212" y="24" width="26" height="7"/>
  <rect x="212" y="33" width="26" height="2"/>
  <rect x="212" y="37" width="26" height="8"/>
  <rect x="212" y="48" width="26" height="21"/>
  <rect x="212" y="72" width="26" height="21"/>
  <rect x="0" y="31" width="59" height="2"/>
  <rect x="166" y="31" width="80" height="2"/>
  <rect x="0" y="33" width="51" height="1"/>
  <rect x="57" y="33" width="2" height="13"/>
  <rect x="57" y="93" width="2" height="10"/>
  <rect x="166" y="33" width="2" height="61"/>
  <rect x="244" y="33" width="2" height="74"/>
  <rect x="0" y="35" width="56" height="2"/>
  <rect x="169" y="35" width="74" height="2"/>
  <rect x="54" y="37" width="2" height="9"/>
  <rect x="54" y="93" width="2" height="14"/>
  <rect x="169" y="37" width="2" height="57"/>
  <rect x="241" y="37" width="2" height="66"/>
  <rect x="0" y="48" width="25" height="21"/>
  <rect x="0" y="72" width="25" height="21"/>
  <rect x="0" y="96" width="25" height="21"/>
  <rect x="37" y="48" width="26" height="7"/>
  <rect x="37" y="57" width="26" height="2"/>
  <rect x="37" y="61" width="26" height="8"/>
  <rect x="29" y="55" width="42" height="2"/>
  <rect x="29" y="57" width="2" height="61"/>
  <rect x="69" y="57" width="2" height="13"/>
  <rect x="32" y="59" width="36" height="2"/>
  <rect x="32" y="61" width="2" height="57"/>
  <rect x="66" y="61" width="2" height="9"/>
  <rect x="41" y="69" width="2" height="14"/>
  <rect x="44" y="69" width="2" height="10"/>
  <rect x="50" y="72" width="25" height="7"/>
  <rect x="50" y="82" width="25" height="1"/>
  <rect x="50" y="85" width="25" height="8"/>
  <rect x="44" y="79" width="40" height="2"/>
  <rect x="49" y="81" width="27" height="1"/>
  <rect x="82" y="81" width="2" height="13"/>
  <rect x="41" y="83" width="40" height="2"/>
  <rect x="79" y="85" width="2" height="9"/>
  <rect x="141" y="93" width="2" height="14"/>
  <rect x="144" y="93" width="2" height="10"/>
  <rect x="62" y="96" width="51" height="7"/>
  <rect x="62" y="105" width="51" height="2"/>
  <rect x="62" y="109" width="51" height="8"/>
  <rect x="150" y="96" width="75" height="7"/>
  <rect x="150" y="106" width="75" height="1"/>
  <rect x="150" y="109" width="75" height="8"/>
  <rect x="57" y="103" width="56" height="2"/>
  <rect x="144" y="103" width="81" height="2"/>
  <rect x="229" y="103" width="14" height="2"/>
  <rect x="149" y="105" width="76" height="1"/>
  <rect x="229" y="105" width="2" height="13"/>
  <rect x="54" y="107" width="59" height="2"/>
  <rect x="141" y="107" width="84" height="2"/>
  <rect x="232" y="107" width="14" height="2"/>
  <rect x="232" y="109" width="2" height="9"/>
  <rect x="35" y="116" width="2" height="11"/>
  <rect x="38" y="116" width="2" height="15"/>
  <rect x="10" y="117" width="2" height="14"/>
  <rect x="13" y="117" width="2" height="10"/>
  <rect x="72" y="117" width="2" height="14"/>
  <rect x="75" y="117" width="2" height="10"/>
  <rect x="160" y="117" width="2" height="14"/>
  <rect x="163" y="117" width="2" height="10"/>
  <rect x="13" y="127" width="24" height="2"/>
  <rect x="75" y="127" width="49" height="2"/>
  <rect x="163" y="127" width="74" height="2"/>
  <rect x="10" y="131" width="30" height="2"/>
  <rect x="72" y="131" width="55" height="2"/>
  <rect x="160" y="131" width="80" height="2"/>
</svg>
